<?xml version="1.0" encoding="UTF-8"?> <svg xmlns="http://www.w3.org/2000/svg" width="367" height="135" viewBox="0 0 367 135" fill="none"> <g clip-path="url(#clip0)"> <path d="M360.697 15.3036L309.599 26.6735V19.1691C309.598 17.3544 310.215 15.5935 311.348 14.176C312.48 12.7586 314.062 11.769 315.831 11.37L366.93 0V7.50441C366.929 9.31886 366.312 11.0793 365.18 12.4965C364.047 13.9138 362.466 14.9036 360.697 15.3036" fill="#F04035"></path> <path d="M172.972 95.2221C161.845 95.018 151.216 92.7225 141.284 87.5533C139.29 86.516 139.25 86.4197 140.44 84.5606C141.896 82.2934 143.449 80.0659 144.865 77.759C145.585 76.5914 146.236 76.2626 147.562 76.9938C152.61 79.8278 157.919 82.0327 163.652 82.9225C171.873 84.1922 180.117 84.793 188.156 81.8456C190.7 80.9104 192.689 79.3007 193.255 76.461C193.912 73.1623 191.811 70.3396 188.156 69.5291C184.927 68.8263 181.663 69.0246 178.4 69.2854C172.36 69.7785 166.389 71.2635 160.27 70.8327C155.516 70.4926 151.148 69.1323 147.381 65.9979C140.622 60.398 140.854 50.36 145.681 44.2102C148.961 40.0386 153.449 37.8337 158.468 36.5301C167.324 34.2232 176.179 34.7277 185.097 36.3657C189.91 37.2473 194.631 38.5755 199.199 40.3333C200.581 40.8661 200.938 41.4669 200.162 42.8215C198.828 45.1076 197.563 47.4315 196.366 49.7932C195.714 51.0798 194.983 51.2385 193.663 50.7057C186.073 47.6436 177.949 46.1216 169.766 46.228C165.998 46.262 162.236 46.7551 158.797 48.5462C156.61 49.6798 155.296 51.3349 155.505 53.9308C155.703 56.4134 157.437 57.4733 159.471 58.2101C162.032 59.1283 164.712 59.0603 167.329 58.7769C172.36 58.2101 177.369 57.5073 182.428 57.2522C188.757 56.9348 194.966 57.4109 200.371 61.2198C203.856 63.6797 206.037 67.0522 206.286 71.3655C206.853 82.4804 201.652 89.5767 190.785 92.7905C188.958 93.3562 187.098 93.8104 185.216 94.1508C181.175 94.8752 177.077 95.2338 172.972 95.2221" fill="white"></path> <path d="M218.666 64.9268C218.666 56.0243 218.666 47.1255 218.666 38.2306C218.666 35.9294 218.734 35.867 221.057 35.867C232.042 35.867 243.034 35.7763 254.019 35.9804C258.665 36.0573 263.206 37.3721 267.175 39.7893C274.58 44.267 276.676 52.2872 275.832 60.194C274.699 70.8668 266.988 76.7275 257.39 78.4109C254.555 78.8355 251.69 79.0251 248.824 78.9777C243.585 79.0306 238.344 79.0306 233.102 78.9777C231.702 78.9777 231.209 79.4368 231.238 80.8311C231.3 84.4926 231.238 88.1542 231.238 91.8157C231.238 94.1906 231.164 94.2416 228.739 94.2416C226.201 94.2416 223.64 94.2416 221.13 94.2416C218.62 94.2416 218.654 94.2416 218.649 91.827C218.649 82.8716 218.649 73.9162 218.649 64.9608L218.666 64.9268ZM242.614 46.8176C238.648 46.8176 235.719 46.8176 232.796 46.8176C231.736 46.8176 231.255 47.2143 231.255 48.3026C231.277 54.3786 231.277 60.4547 231.255 66.5308C231.255 67.5794 231.646 68.1008 232.745 68.0782C239.606 67.9308 246.473 68.4352 253.328 67.7097C258.484 67.1429 262.393 63.4531 262.625 58.828C262.988 52.1285 260.467 48.5066 254.371 47.339C250.15 46.5285 245.872 46.8629 242.614 46.8346" fill="white"></path> <path d="M127.993 94.2132C126.698 94.1429 125.4 94.1523 124.106 94.2415C122.202 94.4796 121.239 93.6237 120.565 91.946C119.778 89.9622 118.729 88.0804 117.863 86.125C117.72 85.6707 117.428 85.2781 117.034 85.0106C116.64 84.7432 116.167 84.6165 115.693 84.6513C105.604 84.6815 95.5155 84.6815 85.4268 84.6513C84.9809 84.6064 84.533 84.7136 84.1556 84.9553C83.7781 85.1971 83.4934 85.5593 83.3476 85.9833C82.3221 88.3015 81.2003 90.5743 80.1861 92.8982C80.0427 93.3229 79.758 93.6857 79.3797 93.926C79.0013 94.1663 78.5521 94.2696 78.1068 94.2188C74.8944 94.1792 71.682 94.2188 68.4753 94.2188C66.5093 94.2188 66.3563 93.9751 67.1892 92.2067C70.8718 84.3584 74.5602 76.5121 78.2542 68.6676C83.0851 58.367 87.9046 48.0645 92.7129 37.7601C93.3304 36.4168 94.0783 35.7706 95.6363 35.8273C98.6788 35.952 101.727 35.952 104.764 35.8273C106.327 35.7706 107.109 36.4281 107.732 37.7374C110.565 43.7398 113.483 49.7138 116.373 55.6992C121.596 66.4911 126.822 77.281 132.049 88.0691C132.809 89.6391 133.545 91.2261 134.316 92.8018C134.746 93.72 134.469 94.2018 133.432 94.2018H128.027L127.993 94.2132ZM100.333 74.1712H110.305C111.285 74.1712 112.084 74.0408 111.438 72.7315C107.963 65.4652 104.494 58.1988 101.03 50.9325C100.866 50.5924 100.775 50.1106 100.282 50.1276C99.7892 50.1446 99.7156 50.6321 99.5626 50.9721C96.2199 58.1761 92.9225 65.3915 89.5401 72.5671C88.8602 74.0181 89.4438 74.1939 90.6732 74.1825C93.8856 74.1485 97.0981 74.1825 100.305 74.1825" fill="white"></path> <path d="M37.3426 83.631C43.2972 83.9371 48.8552 82.4238 54.1072 79.7768C55.6426 79.006 56.5208 79.1533 57.3536 80.695C58.4471 82.7242 59.6879 84.6626 60.9456 86.6124C61.7615 87.8707 61.6765 88.6189 60.2431 89.3954C51.3027 94.2642 41.7844 95.8909 31.6996 94.8876C25.3824 94.2585 19.4109 92.6941 14.0115 89.299C5.70569 84.0731 1.49612 76.3987 0.98055 66.7178C0.193027 52.1454 8.60083 40.6394 22.7083 36.8418C34.4206 33.5561 46.9277 34.644 57.8975 39.9026C60.1638 40.9511 60.1241 41.0362 58.889 43.105C57.6539 45.1738 56.4018 47.1292 55.2347 49.1867C54.6058 50.292 53.9712 50.5187 52.7871 49.9122C47.5124 47.2086 41.8411 46.3527 35.9545 46.4547C30.5495 46.5511 25.4731 47.7074 20.9746 50.8304C18.9059 52.2183 17.193 54.0739 15.9744 56.2471C14.7559 58.4204 14.0659 60.8501 13.9605 63.3397C13.2523 73.8084 20.272 81.1031 30.6005 83.1776C32.8667 83.631 35.082 83.5347 37.3199 83.614" fill="white"></path> <path d="M336.93 35.8614H362.114C364.51 35.8614 364.533 35.8897 364.539 38.3496C364.539 40.4354 364.539 42.5156 364.539 44.5844C364.539 46.6532 364.233 47.0556 362.114 47.0613C356.531 47.084 350.953 47.084 345.378 47.0613C343.219 47.0613 343.213 47.0613 343.213 49.2945C343.213 63.3171 343.213 77.3416 343.213 91.3679C343.213 94.2019 343.213 94.2019 340.465 94.2019C337.933 94.2019 335.395 94.2019 332.856 94.2019C330.664 94.2019 330.59 94.1339 330.59 91.9347C330.59 77.7421 330.59 63.5495 330.59 49.3568C330.59 47.0897 330.59 47.0897 328.358 47.0897C322.949 47.0897 317.54 47.0897 312.132 47.0897C309.542 47.0897 309.338 46.8516 309.333 44.2953C309.333 42.1585 309.389 40.016 309.333 37.8792C309.276 36.3262 309.899 35.8387 311.429 35.85C319.927 35.9067 328.426 35.85 336.958 35.85" fill="white"></path> <path d="M298.993 65.1818C298.993 74.1259 298.959 83.07 299.027 92.0141C299.027 93.6691 298.613 94.3379 296.857 94.2813C294.024 94.1509 291.225 94.2076 288.41 94.2813C287.169 94.2813 286.58 93.9582 286.58 92.5809C286.61 74.2393 286.61 55.8977 286.58 37.5561C286.58 36.2751 287.146 35.8897 288.308 35.9124C291.237 35.9577 294.166 35.9861 297.089 35.9124C298.596 35.867 299.016 36.4792 299.004 37.9018C298.953 47.016 299.004 56.1301 299.004 65.2442" fill="white"></path> <path d="M10.6858 116.902C11.5866 117.29 12.3546 117.932 12.8954 118.75C13.4058 119.607 13.6752 120.586 13.6752 121.584C13.6752 122.582 13.4058 123.561 12.8954 124.418C12.3586 125.24 11.5894 125.883 10.6858 126.266C9.61055 126.717 8.45202 126.935 7.28641 126.906H4.32895V130.93H0.929565V116.25H7.28075C8.44935 116.221 9.61061 116.443 10.6858 116.902V116.902ZM9.43935 123.454C9.70766 123.224 9.9193 122.935 10.0578 122.61C10.1964 122.284 10.2581 121.931 10.2382 121.578C10.2599 121.222 10.1991 120.865 10.0606 120.536C9.92204 120.206 9.70946 119.913 9.43935 119.68C8.7705 119.204 7.95801 118.974 7.13911 119.028H4.37428V124.129H7.13911C7.9607 124.177 8.77345 123.938 9.43935 123.454V123.454Z" fill="#F04035"></path> <path d="M24.323 120.728C25.2597 121.559 25.7281 122.814 25.7281 124.492V130.93H22.6686V129.525C22.053 130.571 20.9066 131.095 19.2296 131.095C18.4509 131.115 17.6774 130.964 16.9633 130.653C16.3708 130.395 15.8652 129.972 15.5073 129.434C15.1689 128.909 14.9934 128.296 15.003 127.671C14.9875 127.194 15.0888 126.719 15.2981 126.29C15.5074 125.86 15.8184 125.488 16.2041 125.206C16.9935 124.605 18.2135 124.305 19.8641 124.305H22.4363C22.4547 124 22.4059 123.694 22.2933 123.41C22.1807 123.126 22.0071 122.87 21.7848 122.661C21.2262 122.24 20.5329 122.038 19.8358 122.094C19.2334 122.094 18.6348 122.189 18.0625 122.377C17.5278 122.542 17.027 122.801 16.5837 123.143L15.4109 120.875C16.084 120.415 16.8315 120.073 17.6205 119.866C18.4842 119.628 19.3761 119.508 20.272 119.509C22.036 119.491 23.3863 119.897 24.323 120.728ZM21.5355 128.51C21.9677 128.253 22.2949 127.852 22.459 127.377V126.243H20.1927C18.8519 126.243 18.1814 126.683 18.1814 127.564C18.1752 127.758 18.2169 127.95 18.3028 128.124C18.3888 128.298 18.5164 128.448 18.6743 128.561C19.074 128.827 19.5491 128.956 20.0284 128.93C20.5607 128.932 21.083 128.785 21.5355 128.505V128.51Z" fill="#F04035"></path> <path d="M33.3879 119.9C34.1171 119.609 34.8973 119.466 35.6825 119.481V122.502C35.3048 122.476 35.0612 122.462 34.9516 122.462C34.5502 122.439 34.1483 122.497 33.7696 122.632C33.391 122.768 33.0435 122.978 32.7477 123.25C32.4629 123.569 32.2453 123.943 32.108 124.348C31.9708 124.753 31.9166 125.182 31.9489 125.608V130.93H28.6685V119.645H31.7902V121.136C32.1955 120.582 32.7495 120.153 33.3879 119.9V119.9Z" fill="#F04035"></path> <path d="M45.3028 130.364C44.9466 130.617 44.5443 130.798 44.1187 130.896C43.635 131.016 43.1383 131.075 42.64 131.072C41.5097 131.144 40.3953 130.777 39.5295 130.046C39.144 129.648 38.8468 129.174 38.6574 128.653C38.468 128.132 38.3906 127.578 38.4304 127.025V122.428H36.691V119.912H38.4304V117.163H41.6995V119.912H44.5323V122.428H41.6995V127.019C41.6739 127.42 41.8061 127.815 42.0677 128.119C42.2039 128.252 42.3666 128.356 42.5452 128.422C42.7238 128.488 42.9144 128.516 43.1045 128.504C43.5793 128.518 44.0446 128.37 44.4246 128.085L45.3028 130.364Z" fill="#F04035"></path> <path d="M57.3876 120.728C58.2488 121.567 58.6794 122.812 58.6794 124.463V130.93H55.4103V124.973C55.4713 124.26 55.2698 123.548 54.8438 122.972C54.6263 122.744 54.3613 122.566 54.0676 122.452C53.7739 122.337 53.4586 122.289 53.1441 122.309C52.7802 122.292 52.4166 122.351 52.077 122.482C51.7373 122.614 51.4292 122.816 51.1724 123.074C50.6433 123.706 50.3811 124.52 50.4416 125.342V130.93H47.1725V119.645H50.2942V120.966C50.7421 120.482 51.2943 120.106 51.909 119.866C52.5839 119.603 53.3034 119.472 54.0279 119.481C54.6426 119.456 55.2562 119.553 55.8329 119.767C56.4097 119.981 56.9382 120.308 57.3876 120.728V120.728Z" fill="#F04035"></path> <path d="M72.7471 126.209H64.2147C64.35 126.88 64.7398 127.474 65.3025 127.864C65.9331 128.286 66.6804 128.498 67.4384 128.471C67.9712 128.481 68.5014 128.392 69.0021 128.21C69.4766 128.022 69.9083 127.741 70.2712 127.382L72.0106 129.27C70.9492 130.486 69.3987 131.095 67.3591 131.095C66.1829 131.122 65.0173 130.868 63.9597 130.352C63.0228 129.895 62.2364 129.179 61.6934 128.289C61.1535 127.383 60.8769 126.345 60.8946 125.291C60.8808 124.242 61.1531 123.209 61.6821 122.304C62.1964 121.426 62.9435 120.708 63.8407 120.229C64.7778 119.745 65.816 119.49 66.8706 119.484C67.9252 119.478 68.9662 119.722 69.9086 120.195C70.7927 120.661 71.5243 121.371 72.0162 122.241C72.5407 123.187 72.8046 124.255 72.7811 125.336C72.8 125.374 72.7887 125.665 72.7471 126.209ZM65.0985 122.581C64.5894 123.013 64.26 123.62 64.175 124.282H69.733C69.6454 123.62 69.3165 123.015 68.8095 122.581C68.2926 122.15 67.6357 121.922 66.9625 121.941C66.2826 121.923 65.619 122.15 65.0928 122.581H65.0985Z" fill="#F04035"></path> <path d="M79.6932 119.9C80.4224 119.609 81.2026 119.466 81.9878 119.481V122.502C81.6101 122.476 81.3665 122.462 81.257 122.462C80.8556 122.439 80.4536 122.497 80.0749 122.632C79.6963 122.768 79.3488 122.978 79.053 123.25C78.7682 123.569 78.5506 123.943 78.4133 124.348C78.2761 124.753 78.2219 125.182 78.2542 125.608V130.93H74.9851V119.645H78.1069V121.136C78.5091 120.583 79.0589 120.155 79.6932 119.9V119.9Z" fill="#F04035"></path> <path d="M85.0302 130.749C84.2759 130.575 83.5546 130.28 82.8943 129.876L83.9821 127.53C84.5487 127.879 85.1633 128.145 85.8064 128.317C86.4876 128.516 87.1931 128.619 87.9027 128.623C89.2851 128.623 89.9763 128.282 89.9763 127.598C89.9726 127.436 89.9148 127.279 89.8122 127.154C89.7095 127.029 89.5678 126.941 89.4098 126.906C88.8443 126.726 88.2612 126.606 87.6704 126.549C86.9048 126.441 86.1475 126.28 85.4042 126.067C84.8073 125.889 84.2679 125.557 83.8405 125.104C83.3691 124.559 83.131 123.85 83.1776 123.131C83.1676 122.447 83.3848 121.779 83.7951 121.232C84.2607 120.639 84.8857 120.191 85.5968 119.94C86.4932 119.615 87.4423 119.459 88.3956 119.481C89.1959 119.481 89.9939 119.568 90.7752 119.742C91.4627 119.879 92.1243 120.124 92.7355 120.467L91.6477 122.797C90.6572 122.239 89.538 121.949 88.4013 121.958C87.8619 121.927 87.3231 122.028 86.8319 122.253C86.6819 122.316 86.5527 122.42 86.4595 122.553C86.3662 122.687 86.3127 122.844 86.305 123.007C86.3038 123.174 86.359 123.338 86.4618 123.47C86.5645 123.603 86.7089 123.697 86.8716 123.738C87.4586 123.925 88.0617 124.058 88.6732 124.134C89.4378 124.253 90.1946 124.418 90.9395 124.628C91.5257 124.802 92.0542 125.13 92.4692 125.58C92.9289 126.113 93.1626 126.804 93.1208 127.507C93.1286 128.182 92.9068 128.839 92.4919 129.372C92.0121 129.96 91.3757 130.4 90.6562 130.641C89.7367 130.959 88.7678 131.111 87.7951 131.089C86.8627 131.094 85.9336 130.98 85.0302 130.749V130.749Z" fill="#F04035"></path> <path d="M105.353 120.728C106.214 121.567 106.645 122.812 106.645 124.463V130.93H103.376V124.973C103.436 124.26 103.235 123.548 102.809 122.973C102.591 122.744 102.326 122.567 102.033 122.452C101.739 122.337 101.424 122.289 101.109 122.309C100.745 122.292 100.382 122.351 100.042 122.482C99.7025 122.614 99.3944 122.816 99.1376 123.075C98.6085 123.706 98.3463 124.52 98.4068 125.342V130.93H95.1377V115.366H98.3558V120.819C98.8009 120.377 99.3363 120.037 99.9251 119.821C100.569 119.586 101.251 119.469 101.936 119.475C102.561 119.443 103.185 119.537 103.772 119.753C104.36 119.968 104.897 120.3 105.353 120.728V120.728Z" fill="#F04035"></path> <path d="M109.766 117.548C109.587 117.382 109.445 117.181 109.347 116.957C109.249 116.733 109.199 116.492 109.199 116.248C109.199 116.003 109.249 115.762 109.347 115.538C109.445 115.314 109.587 115.113 109.766 114.947C110.169 114.589 110.695 114.402 111.234 114.425C111.769 114.402 112.293 114.583 112.701 114.93C112.883 115.085 113.028 115.278 113.126 115.495C113.223 115.713 113.272 115.949 113.268 116.188C113.275 116.441 113.228 116.693 113.131 116.927C113.033 117.16 112.886 117.37 112.701 117.543C112.301 117.907 111.774 118.098 111.234 118.075C110.695 118.097 110.168 117.908 109.766 117.548ZM109.596 119.646H112.865V130.93H109.596V119.646Z" fill="#F04035"></path> <path d="M125.432 120.201C126.284 120.676 126.985 121.381 127.455 122.236C127.937 123.181 128.189 124.227 128.189 125.288C128.189 126.349 127.937 127.395 127.455 128.34C126.985 129.195 126.284 129.9 125.432 130.375C124.566 130.857 123.59 131.107 122.599 131.1C121.967 131.134 121.336 131.029 120.749 130.793C120.162 130.557 119.633 130.196 119.2 129.734V135H115.919V119.645H119.041V120.943C119.48 120.444 120.027 120.052 120.641 119.797C121.255 119.543 121.919 119.432 122.582 119.475C123.579 119.466 124.561 119.716 125.432 120.201V120.201ZM124.072 127.569C124.59 126.927 124.872 126.127 124.872 125.302C124.872 124.477 124.59 123.677 124.072 123.035C123.523 122.49 122.78 122.185 122.007 122.185C121.234 122.185 120.491 122.49 119.942 123.035C119.424 123.677 119.142 124.477 119.142 125.302C119.142 126.127 119.424 126.927 119.942 127.569C120.491 128.114 121.234 128.419 122.007 128.419C122.78 128.419 123.523 128.114 124.072 127.569Z" fill="#F04035"></path> <path d="M143.471 130.93L140.995 127.467L138.44 130.93H134.876L139.216 125.262L135.024 119.662H138.689L141.08 122.955L143.534 119.662H147.012L142.82 125.177L147.182 130.942L143.471 130.93Z" fill="#F04035"></path> <path d="M164.853 123.358H167.958V129.315C167.125 129.934 166.189 130.403 165.193 130.698C164.168 131.016 163.1 131.178 162.026 131.18C160.597 131.202 159.185 130.867 157.919 130.205C156.734 129.584 155.744 128.649 155.057 127.501C154.378 126.31 154.02 124.962 154.02 123.59C154.02 122.219 154.378 120.871 155.057 119.679C155.749 118.527 156.747 117.591 157.941 116.976C159.224 116.313 160.651 115.978 162.094 116.001C163.293 115.985 164.483 116.207 165.596 116.653C166.612 117.064 167.517 117.711 168.236 118.54L166.054 120.552C165.575 120.023 164.989 119.602 164.334 119.317C163.68 119.032 162.972 118.889 162.259 118.897C161.393 118.875 160.536 119.07 159.766 119.464C159.052 119.842 158.462 120.416 158.066 121.119C157.667 121.871 157.458 122.71 157.458 123.562C157.458 124.414 157.667 125.253 158.066 126.005C158.464 126.709 159.053 127.287 159.766 127.671C160.522 128.078 161.371 128.283 162.23 128.266C163.149 128.281 164.057 128.064 164.87 127.637L164.853 123.358Z" fill="#F04035"></path> <path d="M175.578 119.9C176.308 119.609 177.088 119.466 177.873 119.481V122.502C177.51 122.502 177.267 122.462 177.142 122.462C176.741 122.439 176.339 122.497 175.96 122.632C175.582 122.768 175.234 122.978 174.938 123.25C174.653 123.569 174.436 123.943 174.299 124.348C174.161 124.753 174.107 125.182 174.139 125.608V130.93H170.876V119.645H173.998V121.136C174.398 120.584 174.946 120.156 175.578 119.9V119.9Z" fill="#F04035"></path> <path d="M181.884 130.364C180.97 129.894 180.205 129.18 179.675 128.3C179.153 127.387 178.879 126.354 178.879 125.302C178.879 124.25 179.153 123.217 179.675 122.304C180.206 121.424 180.971 120.71 181.884 120.241C182.877 119.75 183.97 119.495 185.077 119.495C186.184 119.495 187.277 119.75 188.269 120.241C189.178 120.712 189.939 121.426 190.468 122.304C190.989 123.217 191.264 124.25 191.264 125.302C191.264 126.354 190.989 127.387 190.468 128.3C189.939 129.178 189.179 129.892 188.269 130.364C187.277 130.854 186.184 131.109 185.077 131.109C183.97 131.109 182.877 130.854 181.884 130.364V130.364ZM187.148 127.575C187.665 126.933 187.948 126.133 187.948 125.308C187.948 124.483 187.665 123.683 187.148 123.04C186.883 122.761 186.563 122.541 186.207 122.395C185.852 122.248 185.47 122.178 185.085 122.19C184.699 122.179 184.316 122.249 183.958 122.395C183.601 122.542 183.279 122.762 183.012 123.04C182.487 123.679 182.2 124.481 182.2 125.308C182.2 126.135 182.487 126.936 183.012 127.575C183.279 127.854 183.601 128.074 183.958 128.22C184.316 128.367 184.699 128.436 185.085 128.425C185.47 128.435 185.853 128.364 186.209 128.216C186.564 128.067 186.884 127.845 187.148 127.564V127.575Z" fill="#F04035"></path> <path d="M211.266 119.646L207.176 130.93H204.031L201.47 123.925L198.876 130.93H195.731L191.663 119.646H194.745L197.408 127.28L200.173 119.646H202.938L205.623 127.28L208.371 119.646H211.266Z" fill="#F04035"></path> <path d="M220.382 130.364C220.026 130.617 219.624 130.798 219.198 130.896C218.714 131.016 218.218 131.075 217.719 131.072C216.589 131.144 215.475 130.777 214.609 130.046C214.223 129.648 213.926 129.174 213.737 128.653C213.547 128.132 213.47 127.578 213.51 127.025V122.428H211.771V119.912H213.51V117.163H216.768V119.912H219.6V122.428H216.768V127.019C216.743 127.42 216.875 127.814 217.136 128.119C217.272 128.252 217.435 128.356 217.613 128.422C217.792 128.488 217.983 128.516 218.173 128.504C218.647 128.518 219.113 128.37 219.493 128.085L220.382 130.364Z" fill="#F04035"></path> <path d="M232.467 120.728C233.328 121.567 233.759 122.812 233.759 124.463V130.93H230.49V124.973C230.551 124.26 230.349 123.548 229.923 122.973C229.706 122.744 229.441 122.567 229.147 122.452C228.853 122.337 228.538 122.289 228.224 122.309C227.86 122.292 227.496 122.351 227.156 122.482C226.817 122.614 226.509 122.816 226.252 123.075C225.723 123.706 225.461 124.52 225.521 125.342V130.93H222.252V115.366H225.521V120.819C225.966 120.377 226.502 120.037 227.09 119.821C227.735 119.586 228.416 119.469 229.102 119.475C229.718 119.45 230.333 119.548 230.91 119.763C231.488 119.978 232.017 120.306 232.467 120.728V120.728Z" fill="#F04035"></path> </g> <defs> <clipPath id="clip0"> <rect x="0.929565" width="366" height="135" fill="white"></rect> </clipPath> </defs> </svg> 